Coordinates
version=1
nRows=27
nColumns=12
inDegrees=yes

Units are S.I. units (second, meters, Newtons, ...)
Angles are in degrees

endheader
time	SC_y	SC_z	SC_x	AC_y	AC_z	AC_x	GH_y	GH_z	GH_yy	EL_x	PS_y
       0.0              -22.93          11.33          58.76           42.9          5.789         -1.294         -116.9          85.09          40.91          53.41          64.78
    0.0212              -22.93          11.33          58.75           42.9          5.785         -1.291         -116.8          85.07           40.9          53.41          64.77
   0.04239              -22.93          11.33          58.74           42.9          5.781         -1.288         -116.8          85.06          40.89           53.4          64.77
   0.06359              -22.93          11.33          58.73           42.9          5.777         -1.284         -116.8          85.05          40.87          53.39          64.76
   0.08479              -22.93          11.33          58.73           42.9          5.772         -1.281         -116.7          85.03          40.86          53.39          64.75
     0.106              -22.93          11.33          58.72           42.9          5.768         -1.277         -116.7          85.02          40.84          53.38          64.74
    0.1272              -22.93          11.33          58.71           42.9          5.762         -1.273         -116.6           85.0          40.83          53.37          64.73
    0.1484              -22.93          11.33          58.69           42.9          5.757         -1.269         -116.6          84.98          40.81          53.36          64.72
    0.1696              -22.93          11.33          58.68           42.9          5.751         -1.264         -116.5          84.97          40.79          53.35          64.71
    0.1908              -22.93          11.33          58.67          42.89          5.745         -1.259         -116.5          84.94          40.77          53.34           64.7
     0.212              -22.93          11.33          58.66          42.89          5.738         -1.254         -116.4          84.92          40.75          53.33          64.69
    0.2332              -22.93          11.33          58.64          42.89          5.731         -1.248         -116.4           84.9          40.72          53.32          64.68
    0.2544              -22.93          11.33          58.63          42.89          5.723         -1.242         -116.3          84.87           40.7          53.31          64.66
    0.2756              -22.93          11.33          58.61          42.89          5.715         -1.235         -116.2          84.85          40.67           53.3          64.65
    0.2968              -22.93          11.32          58.59          42.89          5.706         -1.228         -116.1          84.82          40.64          53.28          64.63
     0.318              -22.93          11.32          58.57          42.89          5.696          -1.22         -116.1          84.79          40.61          53.26          64.61
    0.3392              -22.93          11.32          58.55          42.89          5.685         -1.212         -116.0          84.75          40.58          53.25          64.59
    0.3604              -22.93          11.32          58.52          42.89          5.673         -1.202         -115.9          84.71          40.54          53.23          64.57
    0.3816              -22.94          11.32           58.5          42.89           5.66         -1.192         -115.8          84.67           40.5          53.21          64.55
    0.4028              -22.94          11.32          58.47          42.88          5.646         -1.181         -115.6          84.63          40.45          53.19          64.52
    0.4239              -22.94          11.31          58.44          42.88          5.631         -1.169         -115.5          84.58           40.4          53.16          64.49
    0.4451              -22.94          11.31           58.4          42.88          5.614         -1.156         -115.4          84.52          40.35          53.13          64.46
    0.4663              -22.94          11.31          58.37          42.88          5.595         -1.141         -115.2          84.46          40.29           53.1          64.43
    0.4875              -22.94          11.31          58.32          42.88          5.575         -1.124         -115.0           84.4          40.22          53.07          64.39
    0.5087              -22.94           11.3          58.28          42.87          5.552         -1.106         -114.8          84.32          40.15          53.03          64.35
    0.5299              -22.95           11.3          58.23          42.87          5.526         -1.086         -114.6          84.24          40.07          52.99           64.3
    0.5511              -22.95           11.3          58.17          42.87          5.497         -1.063         -114.3          84.15          39.97          52.95          64.25
